<?xml version="1.0" encoding="UTF-8" standalone="no"?>
<svg
   version="1.1"
   id="logo_cnn_btasil"
   x="0px"
   y="0px"
   viewBox="0 0 1000 72"
   xml:space="preserve"
   width="72"
   aria-labelledby="title"
   sodipodi:docname="log-cnn-brasil-transparent.svg"
   height="72"
   inkscape:version="1.3 (0e150ed6c4, 2023-07-21)"
   xmlns:inkscape="http://www.inkscape.org/namespaces/inkscape"
   xmlns:sodipodi="http://sodipodi.sourceforge.net/DTD/sodipodi-0.dtd"
   xmlns="http://www.w3.org/2000/svg"
   xmlns:svg="http://www.w3.org/2000/svg"><defs
     id="defs8" /><sodipodi:namedview
     id="namedview8"
     pagecolor="#ffffff"
     bordercolor="#000000"
     borderopacity="0.25"
     inkscape:showpageshadow="2"
     inkscape:pageopacity="0.0"
     inkscape:pagecheckerboard="0"
     inkscape:deskcolor="#d1d1d1"
     inkscape:zoom="0.838"
     inkscape:cx="35.799523"
     inkscape:cy="180.19093"
     inkscape:window-width="1920"
     inkscape:window-height="1009"
     inkscape:window-x="-8"
     inkscape:window-y="-8"
     inkscape:window-maximized="1"
     inkscape:current-layer="logo_cnn_btasil" /><style
     type="text/css"
     id="style1"> .st0{fill:#CC0000;} .st1{fill:#FFFFFF;}</style><rect
     class="st0"
     width="1000"
     height="1000"
     id="rect1"
     x="0"
     y="-464"
     inkscape:export-filename="rect1.png"
     inkscape:export-xdpi="426.66666"
     inkscape:export-ydpi="426.66666" /><path
     class="st1"
     d="m 214,-44.500064 c 0,-42 34.3,-76.299996 76.3,-76.299996 h 57.9 v -42.7 h -58.3 c -66,-1.4 -120.4,51.2 -121.5,117.199996 -1.1,66 51.2,120.4 117.2,121.5 1.4,0 2.8,0 4.2,0 h 112.3 c 6,-0.4 10.9,-5.3 11.3,-11.3 V -157.50006 c -0.4,-12 7.4,-22.2 19.1,-25.4 9.9,-2.8 23.3,0 32.5,15.5 l 70,120.799996 c 32.8,56.9 67.1,115.8 67.8,116.5 3.5,6 8.5,8.8 13.1,7.4 3.9,-1.1 6.4,-4.9 6.4,-8.8 V -157.50006 c -0.4,-12 7.4,-22.2 19.1,-25.4 9.5,-2.8 23.3,0 32.1,15.5 0.4,0.7 24.7,42.7 65,111.899996 35.3,61.0999999 72,124.3 72.7,125.7 3.5,6 8.5,8.8 13.1,7.4 3.9,-1.1 6.4,-4.9 6.4,-8.8 V -224.20006 h -43.1 v 174.099996 c 0,0 -72.4,-124.599996 -75.6,-129.899996 -45.9,-78 -132.4,-45.9 -132.4,21.2 v 108.799996 c 0,0 -72.4,-124.299996 -75.6,-129.899996 -45.9,-78 -132.4,-45.9 -132.8,21.2 V 19.999936 c 0,6.7 -4.9,12 -11.7,12 h -0.4 -68.9 c -42,-0.2 -76.2,-34.1000001 -76.2,-76.5 z"
     id="path1" /><path
     class="st1"
     d="M 847.1,-224.20006 V 68.499936 c 0.4,12 -7.8,22.2 -19.1,25.4 -2.1,0.7 -4.6,1.1 -6.7,0.7 -8.5,0 -18.4,-4.2 -25.8,-16.2 l -72.7,-125.7 -64.6,-111.899996 c -3.5,-6 -8.5,-8.8 -12.7,-7.4 -3.9,1.1 -6.4,4.9 -6.4,8.8 V 68.199936 c 0.4,12 -7.4,22.2 -19.1,25.4 -9.9,2.5 -23.3,0 -32.5,-15.5 l -67.8,-116.9 -69.9,-120.799996 c -3.5,-6 -8.5,-8.8 -13.1,-7.4 -3.9,1.1 -6.4,4.9 -6.4,8.8 V 62.799936 c -0.4,15.5 -13.1,28.2 -28.6,28.6 H 289.9 c -75.6,1.1 -137.7,-59 -138.8,-134.5 -1.1,-75.599996 59,-137.699996 134.5,-138.799996 1.4,0 2.8,0 4.2,0 h 58.3 v -42.4 h -58.3 c -99.6,-1.4 -181.1,78 -182.6,177.299996 -1.5,99.3 78,180.800004 177.3,182.200004 1.8,0 3.5,0 4.9,0 h 113.3 c 43.1,0 70.6,-25.1 70.6,-71.700004 v -102.4 c 0,0 72.4,124.6 75.6,130.3 45.9,78.000004 132.4,45.600004 132.4,-21.5 v -108.8 c 0,0 72.4,124.6 75.6,130.3 45.9,78.000004 132.4,45.600004 132.4,-21.5 V -224.20006 Z"
     id="path2" /><path
     class="st1"
     d="m 315,192.79994 c 6,4.9 9.5,12.7 8.8,20.5 0,4.9 -1.1,9.9 -3.9,14.1 -2.5,4.2 -6.4,7.4 -10.6,9.5 v 0 c 12,2.8 20.1,14.1 19.4,26.5 0.4,6 -1.8,12.4 -4.9,17.3 -3.5,4.9 -8.1,8.5 -13.8,10.9 -6.4,2.5 -13.1,3.9 -19.8,3.9 h -51.9 v -109.4 h 50.5 c 11.7,-0.4 20.5,1.7 26.2,6.7 z m -53,11.6 v 24.7 h 24 c 3.9,0.4 7.8,-0.7 10.9,-3.2 4.9,-5.3 4.9,-13.4 0,-18.4 -3.2,-2.1 -7.1,-3.5 -10.9,-3.2 z m 0,43.5 v 28.6 h 27.5 c 4.2,0.4 8.5,-1.1 12,-3.9 5.3,-6 5.3,-15.2 0,-21.2 -3.2,-2.8 -7.4,-4.2 -12,-3.9 z"
     id="path3" /><path
     class="st1"
     d="m 440.3,288.49994 c 0.4,2.5 1.1,4.6 2.1,6.7 H 418 c -1.4,-4.6 -2.1,-9.2 -2.8,-14.1 l -1.8,-14.1 c 0,-3.9 -1.8,-7.8 -4.6,-10.6 -3.5,-2.5 -7.4,-3.5 -11.7,-3.2 h -24 v 42 h -24 v -109.5 h 50.5 c 13.1,0 23,2.8 29.3,8.1 6.4,5.6 9.9,14.1 9.5,23 0,5.6 -1.4,11.7 -4.2,16.6 -2.8,4.9 -7.4,8.5 -12.4,10.6 4.2,1.4 8.1,3.9 10.6,7.4 2.5,3.9 4.2,8.5 4.6,13.4 l 1.8,13.4 c 0.5,4.3 1.2,7.8 1.5,10.3 z m -26.5,-68.9 c 0,-10.2 -6,-15.2 -18,-15.2 h -23 v 30.4 h 23 c 12,0 18,-4.9 18,-15.2 z"
     id="path4" /><path
     class="st1"
     d="m 531.8,270.79994 h -41 l -7.8,24.7 h -25.8 l 36.4,-109.8 h 35 l 37.1,109.8 h -26.1 z m -21.2,-67.8 -14.5,49.1 h 30.7 l -15.1,-49.1 z"
     id="path5" /><path
     class="st1"
     d="m 641.9,186.39994 c 6,2.1 10.9,6 14.8,11.3 3.5,4.9 5.6,10.9 5.6,17.3 h -24.4 c -0.4,-3.9 -2.5,-7.4 -5.6,-9.5 -3.9,-2.5 -8.5,-3.5 -13.4,-3.2 -4.6,-0.4 -9.5,1.1 -13.4,3.5 -3.2,2.1 -4.9,5.6 -4.9,9.2 0,2.8 0.7,5.3 2.8,7.4 2.1,1.8 4.6,3.2 7.4,3.5 l 27.9,6 c 18,3.9 27.2,14.1 27.2,30.7 0,6.7 -1.8,13.1 -5.3,18.4 -3.9,5.3 -8.8,9.5 -15.2,12 -7.1,3.2 -15.2,4.6 -23,4.2 -14.1,0 -25.4,-3.2 -33.9,-9.2 -8.1,-5.6 -13.1,-15.5 -12.7,-25.4 v -1.4 h 24 v 1.1 c 0,4.6 2.1,8.5 5.6,11.3 4.9,3.2 10.6,4.6 16.2,4.2 5.3,0.4 10.6,-1.1 15.2,-3.9 3.2,-2.1 4.9,-6 4.9,-9.9 0,-3.2 -1.1,-6.4 -3.5,-8.5 -3.5,-2.5 -7.4,-4.2 -11.7,-4.9 l -23.7,-4.9 c -17.7,-3.5 -26.1,-13.8 -26.1,-30 -0.4,-6.7 1.8,-13.1 5.6,-18.4 3.9,-5.3 9.2,-9.2 15.5,-11.7 7.1,-2.8 14.5,-3.9 22.2,-3.9 7.8,0.5 15.2,1.9 21.9,4.7 z"
     id="path6" /><path
     class="st1"
     d="m 713.3,295.49994 h -24.7 v -109.8 h 24.7 z"
     id="path7" /><path
     class="st1"
     d="m 765.9,275.39994 h 51.6 v 20.1 h -75.9 v -109.8 H 766 v 89.7 z"
     id="path8" /></svg>
